<svg xmlns="http://www.w3.org/2000/svg" xmlns:xlink="http://www.w3.org/1999/xlink" width="500" zoomAndPan="magnify" viewBox="0 0 375 374.999991" height="500" preserveAspectRatio="xMidYMid meet" version="1.0"><defs><clipPath id="129868ae32"><path d="M 47.109375 0 L 327.609375 0 L 327.609375 375 L 47.109375 375 Z M 47.109375 0 " clip-rule="nonzero"/></clipPath></defs><g clip-path="url(#129868ae32)"><path fill="#050a30" d="M 261.554688 66.347656 C 298.21875 66.347656 327.941406 36.625 327.941406 -0.0390625 L 117.871094 -0.0390625 C 116.414062 -0.0390625 114.972656 0.0273438 113.539062 0.121094 L 113.539062 -0.0390625 C 76.875 -0.0390625 47.15625 29.683594 47.15625 66.347656 L 47.15625 374.941406 C 83.816406 374.941406 113.539062 345.222656 113.539062 308.558594 L 113.539062 66.347656 L 261.554688 66.347656 " fill-opacity="1" fill-rule="nonzero"/></g><path fill="#00bf63" d="M 121.527344 200.90625 L 233.539062 200.90625 C 270.203125 200.90625 299.925781 171.1875 299.925781 134.523438 L 187.910156 134.523438 C 151.246094 134.523438 121.527344 164.242188 121.527344 200.90625 " fill-opacity="1" fill-rule="nonzero"/></svg>